<svg width="86" height="57" viewBox="0 0 86 57" fill="none" xmlns="http://www.w3.org/2000/svg">
  <path
    d="M78.2205 0C77.1211 13.7747 20.0804 17.32 12.2139 18.5C-3.73985 20.8931 -2.19908 46.3964 6.22054 56.5C8.61117 30.2067 113.214 59.5 78.2205 0Z"
    fill="#603EFF" />
  <path
    d="M36.038 24.9355C35.674 24.8005 35.2804 24.6926 34.8571 24.6117C34.4338 24.5309 34.0275 24.5138 33.6383 24.5604C33.1008 24.6249 32.6849 24.8016 32.3906 25.0907C32.1055 25.3787 31.9879 25.7312 32.0379 26.1482C32.0757 26.4633 32.2099 26.7198 32.4404 26.9178C32.6698 27.1065 32.9608 27.2596 33.3133 27.3772C33.6658 27.4947 34.0311 27.6013 34.4091 27.697C34.7387 27.7797 35.0652 27.8768 35.3888 27.9885C35.7124 28.1001 36.008 28.2526 36.2756 28.4462C36.5524 28.6386 36.7798 28.8886 36.9577 29.1963C37.1449 29.5029 37.2673 29.8971 37.3251 30.379C37.3884 30.9072 37.3118 31.4052 37.0953 31.8729C36.888 32.3396 36.5538 32.7275 36.0927 33.0366C35.6315 33.3457 35.0627 33.5407 34.3862 33.6218C33.9414 33.6752 33.509 33.6753 33.089 33.6223C32.6783 33.5681 32.2921 33.4828 31.9303 33.3664C31.5675 33.2407 31.2411 33.1059 30.9513 32.962L31.4223 31.8339C31.6636 31.9648 31.9368 32.0872 32.2418 32.201C32.5458 32.3056 32.8608 32.3853 33.187 32.4402C33.5121 32.4858 33.8229 32.4909 34.1195 32.4553C34.4345 32.4175 34.7383 32.3247 35.0308 32.1768C35.3314 32.0186 35.5692 31.8068 35.7442 31.5414C35.9192 31.276 35.9828 30.9441 35.9351 30.5456C35.894 30.2027 35.7674 29.9312 35.5554 29.731C35.3515 29.5204 35.0919 29.3542 34.7765 29.2322C34.4599 29.1009 34.1271 28.9904 33.7779 28.9007C33.4484 28.818 33.1131 28.7266 32.7721 28.6265C32.43 28.5171 32.1077 28.3771 31.8053 28.2066C31.5017 28.0267 31.2482 27.7939 31.0447 27.5081C30.8413 27.2223 30.7134 26.8616 30.6612 26.4261C30.5979 25.8979 30.668 25.4241 30.8715 25.0049C31.0833 24.5753 31.3982 24.2227 31.8163 23.947C32.2334 23.662 32.7281 23.4757 33.3004 23.3883C33.9491 23.3106 34.5284 23.321 35.0385 23.4197C35.5578 23.5172 36.0213 23.6591 36.429 23.8452L36.038 24.9355ZM42.0074 32.7364C41.4699 32.8008 40.9649 32.7439 40.4923 32.5655C40.029 32.3861 39.6409 32.0895 39.3281 31.6758C39.0235 31.2517 38.8323 30.7153 38.7545 30.0666C38.6779 29.4272 38.7461 28.8597 38.9593 28.3641C39.1714 27.8593 39.4849 27.4551 39.8997 27.1516C40.3238 26.8469 40.8046 26.6624 41.342 26.598C41.8795 26.5335 42.3486 26.6042 42.7493 26.81C43.1488 27.0065 43.4659 27.2599 43.7005 27.5701L43.6438 27.8025L43.6222 26.5643L44.8177 26.421L45.5076 32.1758L44.2148 32.3308L44.0349 30.8295L44.2139 31.1465C44.1879 31.2436 44.119 31.374 44.007 31.5379C43.9032 31.6913 43.7536 31.8549 43.5582 32.0288C43.3721 32.2015 43.1508 32.3549 42.8943 32.4891C42.6367 32.614 42.341 32.6964 42.0074 32.7364ZM42.2266 31.6244C42.551 31.5855 42.8357 31.4903 43.0807 31.3387C43.3257 31.1871 43.5189 30.9948 43.6601 30.7616C43.8095 30.5181 43.8983 30.2396 43.9266 29.926L43.7916 28.8C43.6841 28.5309 43.5255 28.3055 43.3157 28.1239C43.1048 27.933 42.863 27.7974 42.5902 27.7173C42.3162 27.628 42.0217 27.6022 41.7067 27.64C41.3638 27.6811 41.0587 27.8022 40.7914 28.0035C40.5241 28.2047 40.3202 28.4642 40.1797 28.7818C40.0485 29.0984 40.0067 29.4559 40.0545 29.8544C40.0989 30.225 40.2275 30.5527 40.4403 30.8374C40.653 31.1221 40.9182 31.3347 41.2358 31.4753C41.5535 31.6158 41.8838 31.6655 42.2266 31.6244ZM46.4549 21.1486L47.7476 20.9936L49.0374 31.7526L47.7447 31.9076L46.4549 21.1486ZM53.9597 31.3035C53.3017 31.3824 52.7209 31.3204 52.2171 31.1176C51.7123 30.9055 51.3029 30.588 50.989 30.165C50.6833 29.7317 50.4948 29.2185 50.4237 28.6254C50.356 28.0601 50.438 27.5285 50.6697 27.0308C50.9014 26.533 51.2416 26.1162 51.6901 25.7804C52.1387 25.4446 52.6595 25.2412 53.2526 25.1701C54.0125 25.079 54.6693 25.2258 55.223 25.6107C55.7768 25.9955 56.1883 26.5666 56.4577 27.3239L51.9176 29.5602L51.5202 28.8323L55.2423 26.9479L54.986 27.1619C54.8381 26.8694 54.6211 26.6275 54.335 26.4362C54.0477 26.2357 53.6956 26.1604 53.2786 26.2104C52.9264 26.2526 52.6219 26.3784 52.365 26.5878C52.107 26.7879 51.917 27.0457 51.795 27.3612C51.673 27.6766 51.6348 28.0243 51.6804 28.4042C51.7281 28.8027 51.8537 29.1448 52.0572 29.4307C52.2596 29.7072 52.5149 29.9163 52.8233 30.0579C53.1399 30.1892 53.4835 30.2326 53.8542 30.1882C54.1044 30.1582 54.3397 30.0829 54.5603 29.9625C54.7901 29.8409 54.9981 29.6938 55.1842 29.5211L55.8969 30.4086C55.633 30.6376 55.3275 30.834 54.9805 30.9978C54.6428 31.1605 54.3025 31.2624 53.9597 31.3035Z"
    fill="#EEEFFB" />
</svg>